<svg xmlns="http://www.w3.org/2000/svg" viewBox="0 0 240 240" width="100%" height="100%">
  <defs>
    <linearGradient id="orange-gradient" x1="0%" y1="0%" x2="100%" y2="100%">
      <stop offset="0%" stop-color="#F9A01B" />
      <stop offset="100%" stop-color="#ED6626" />
    </linearGradient>
  </defs>

  <g transform="translate(10, 10)">
    <path d="M 110 0 C 49.25 0 0 49.25 0 110 C 0 160.5 34.08 203.07 80.67 216.03 L 80.67 220 L 124 220 L 124 195.55 C 124 195.55 123.6 195.55 122.84 195.49 C 73.13 191.63 34.11 150.31 34.11 100 C 34.11 44.34 79.13 0 134.79 0 C 145.45 0 155.77 1.66 165.49 4.73 C 149.33 1.65 131.06 0 110 0 Z" fill="#2C2359" />
    
    <path d="M 125 15 C 69.77 15 25 59.77 25 115 C 25 170.23 69.77 215 125 215 C 180.23 215 225 170.23 225 115 C 225 59.77 180.23 15 125 15 Z M 125 30 C 171.94 30 210 68.06 210 115 C 210 161.94 171.94 200 125 200 C 78.06 200 40 161.94 40 115 C 40 68.06 78.06 30 125 30 Z" fill="url(#orange-gradient)" />
    
    <text x="125" y="148" font-family="'Times New Roman', Times, serif, Georgia" font-size="105" font-weight="normal" fill="#2C2359" text-anchor="middle">S</text>
  </g>
</svg>
